<svg width="18" height="20" viewBox="0 0 18 20" fill="none" xmlns="http://www.w3.org/2000/svg">
<path d="M9.0001 -0.00390625C13.05 -0.00390625 16.3568 3.19084 16.4959 7.24515L16.5001 7.49609V11.5931L17.8801 14.7491C17.9492 14.907 17.9848 15.0775 17.9848 15.2499C17.9848 15.9402 17.4252 16.4999 16.7348 16.4999L12.0001 16.5014C12.0001 18.1582 10.657 19.5014 9.0001 19.5014C7.4024 19.5014 6.09645 18.2524 6.0052 16.6776L5.99966 16.4991L1.27498 16.4999C1.10364 16.4999 0.934132 16.4646 0.776972 16.3964C0.143772 16.1213 -0.146578 15.3851 0.128462 14.7519L1.50011 11.594V7.49599C1.50071 3.3412 4.8522 -0.00390625 9.0001 -0.00390625ZM10.4997 16.4991L7.5001 16.5014C7.5001 17.3298 8.1717 18.0014 9.0001 18.0014C9.7798 18.0014 10.4206 17.4065 10.4932 16.6458L10.4997 16.4991ZM9.0001 1.49609C5.67995 1.49609 3.00059 4.17035 3.00011 7.49609V11.9057L1.65613 14.9999H16.3526L15.0001 11.9067L15.0002 7.50895L14.9965 7.28375C14.8854 4.05027 12.2417 1.49609 9.0001 1.49609Z" fill="#212121"/>
</svg>
