<svg width="17" height="21" viewBox="0 0 17 21" fill="none" xmlns="http://www.w3.org/2000/svg">
<path d="M0 3C0 1.61929 1.11929 0.5 2.5 0.5H14C15.3807 0.5 16.5 1.61929 16.5 3V17.25C16.5 17.6642 16.1642 18 15.75 18H1.5C1.5 18.5523 1.94772 19 2.5 19H15.75C16.1642 19 16.5 19.3358 16.5 19.75C16.5 20.1642 16.1642 20.5 15.75 20.5H2.5C1.11929 20.5 0 19.3807 0 18V3ZM6.5512 4.86764C4.98118 5.52105 3.83719 6.99262 3.65152 8.75H5.75821C5.79946 7.50044 5.99438 6.35326 6.3047 5.4667C6.3777 5.25805 6.4596 5.05669 6.5512 4.86764ZM9.8907 4.75184C10.0061 4.97362 10.1072 5.21485 10.1953 5.4667C10.5056 6.35326 10.7005 7.50044 10.7418 8.75H13.0985C12.9009 6.87956 11.6177 5.3329 9.8907 4.75184ZM9.2409 8.75C9.2001 7.63802 9.0254 6.66476 8.7795 5.96223C8.6373 5.55575 8.4851 5.28027 8.3534 5.12107C8.3078 5.06605 8.2732 5.03432 8.25 5.01645C8.2268 5.03432 8.1922 5.06605 8.1466 5.12107C8.0149 5.28027 7.8627 5.55575 7.7205 5.96223C7.4746 6.66476 7.2999 7.63802 7.2591 8.75H9.2409ZM7.287 10.25C7.355 11.1534 7.5122 11.9427 7.7205 12.5378C7.8627 12.9442 8.0149 13.2197 8.1466 13.3789C8.1922 13.434 8.2268 13.4657 8.25 13.4836C8.2732 13.4657 8.3078 13.434 8.3534 13.3789C8.4851 13.2197 8.6373 12.9442 8.7795 12.5378C8.9878 11.9427 9.145 11.1534 9.213 10.25H7.287ZM5.78322 10.25H3.7294C4.05772 11.7902 5.13258 13.054 6.5571 13.6446C6.4631 13.452 6.3793 13.2465 6.3047 13.0333C6.0363 12.2664 5.85418 11.3045 5.78322 10.25ZM9.8845 13.76C11.4611 13.232 12.669 11.8995 13.0206 10.25H10.7168C10.6458 11.3045 10.4637 12.2664 10.1953 13.0333C10.1056 13.2896 10.0025 13.535 9.8845 13.76ZM8.2808 13.5035C8.2836 13.5043 8.2849 13.505 8.2849 13.505L8.2808 13.5035Z" fill="#00204A"/>
</svg>
