<svg width="20" height="18" viewBox="0 0 20 18" fill="none" xmlns="http://www.w3.org/2000/svg">
<path d="M2 0H3C4.05382 0 4.91812 0.8164 4.99451 1.85081L5 2V16C5 17.0538 4.1836 17.9181 3.14919 17.9945L3 18H2C0.94618 18 0.0818801 17.1836 0.00549006 16.1492L0 16V2C0 0.94618 0.8164 0.0818801 1.85081 0.00549006L2 0ZM8 0H9C10.0538 0 10.9181 0.8164 10.9945 1.85081L11 2V16C11 17.0538 10.1836 17.9181 9.1492 17.9945L9 18H8C6.94618 18 6.08188 17.1836 6.00549 16.1492L6 16V2C6 0.94618 6.8164 0.0818801 7.85081 0.00549006L8 0ZM14.9743 2.0005C15.8138 2.0005 16.5825 2.5311 16.8643 3.34636L16.9113 3.5025L19.9263 15.2485C20.1888 16.2689 19.613 17.3094 18.6295 17.6402L18.4863 17.6825L17.5173 17.9315C17.3513 17.9735 17.1833 17.9945 17.0193 17.9945C16.1807 17.9945 15.4112 17.463 15.1302 16.6476L15.0833 16.4915L12.0673 4.7465C11.8058 3.72514 12.3807 2.68555 13.3649 2.35484L13.5083 2.3125L14.4763 2.0635C14.6423 2.0205 14.8103 2.0005 14.9743 2.0005ZM3 1.5H2C1.75467 1.5 1.55042 1.67778 1.50806 1.91043L1.5 2V16C1.5 16.2444 1.67699 16.4494 1.91016 16.4919L2 16.5H3C3.24533 16.5 3.44958 16.3222 3.49194 16.0896L3.5 16V2C3.5 1.75556 3.32301 1.55062 3.08984 1.50809L3 1.5ZM9 1.5H8C7.75467 1.5 7.55042 1.67778 7.50806 1.91043L7.5 2V16C7.5 16.2444 7.67699 16.4494 7.91016 16.4919L8 16.5H9C9.2453 16.5 9.4496 16.3222 9.4919 16.0896L9.5 16V2C9.5 1.75556 9.323 1.55062 9.0898 1.50809L9 1.5ZM14.9753 3.5005L14.9119 3.50437L14.8493 3.5165L13.8813 3.7645C13.7063 3.8095 13.6143 3.9275 13.5743 3.9955C13.5431 4.0483 13.4985 4.14718 13.5049 4.27422L13.5203 4.3745L16.5363 16.1185C16.6023 16.3765 16.8333 16.4945 17.0193 16.4945L17.0818 16.4906L17.1443 16.4785L18.1133 16.2295C18.3515 16.1691 18.5052 15.9458 18.4879 15.7102L18.4733 15.6215L15.4583 3.8755C15.3913 3.6185 15.1613 3.5005 14.9753 3.5005Z" fill="#212121"/>
</svg>
