<svg width="20" height="17" viewBox="0 0 20 17" fill="none" xmlns="http://www.w3.org/2000/svg">
<path d="M3.25 0.5H16.75C18.483 0.5 19.8992 1.85645 19.9949 3.56558L20 3.75V13.25C20 14.983 18.6435 16.3992 16.9344 16.4949L16.75 16.5H3.25C1.51697 16.5 0.10075 15.1435 0.00514007 13.4344L0 13.25V3.75C0 2.01697 1.35645 0.60075 3.06558 0.50514L3.25 0.5ZM18.5 5.873L10.3493 10.1637C10.1619 10.2623 9.9431 10.2764 9.7468 10.206L9.6507 10.1637L1.5 5.874V13.25C1.5 14.1682 2.20711 14.9212 3.10647 14.9942L3.25 15H16.75C17.6682 15 18.4212 14.2929 18.4942 13.3935L18.5 13.25V5.873ZM16.75 2H3.25C2.33183 2 1.57881 2.70711 1.5058 3.60647L1.5 3.75V4.179L10 8.6525L18.5 4.178V3.75C18.5 2.83183 17.7929 2.07881 16.8935 2.0058L16.75 2Z" fill="#00204A"/>
</svg>
