<svg width="10" height="8" viewBox="0 0 10 8" fill="none" xmlns="http://www.w3.org/2000/svg">
<path d="M0.199951 1.20002C0.199951 1.03434 0.334267 0.900024 0.499951 0.900024H9.49995C9.66561 0.900024 9.79995 1.03434 9.79995 1.20002C9.79995 1.36571 9.66561 1.50002 9.49995 1.50002H0.499951C0.334267 1.50002 0.199951 1.36571 0.199951 1.20002ZM0.199951 4.20002C0.199951 4.03434 0.334267 3.90002 0.499951 3.90002H9.49995C9.66561 3.90002 9.79995 4.03434 9.79995 4.20002C9.79995 4.36571 9.66561 4.50002 9.49995 4.50002H0.499951C0.334267 4.50002 0.199951 4.36571 0.199951 4.20002ZM0.499951 6.90002C0.334267 6.90002 0.199951 7.03436 0.199951 7.20002C0.199951 7.36568 0.334267 7.50002 0.499951 7.50002H9.49995C9.66561 7.50002 9.79995 7.36568 9.79995 7.20002C9.79995 7.03436 9.66561 6.90002 9.49995 6.90002H0.499951Z" fill="#212121"/>
</svg>
