<svg width="16" height="20" viewBox="0 0 16 20" fill="none" xmlns="http://www.w3.org/2000/svg">
<path d="M8 14C8.8284 14 9.5 13.3284 9.5 12.5C9.5 11.6716 8.8284 11 8 11C7.1716 11 6.5 11.6716 6.5 12.5C6.5 13.3284 7.1716 14 8 14ZM4 4.5C4 2.29086 5.79086 0.5 8 0.5C10.2091 0.5 12 2.29086 12 4.5V5.5H12.75C14.5449 5.5 16 6.95507 16 8.75V16.25C16 18.0449 14.5449 19.5 12.75 19.5H3.25C1.45507 19.5 0 18.0449 0 16.25V8.75C0 6.95507 1.45507 5.5 3.25 5.5H4V4.5ZM8 2C6.6193 2 5.5 3.11929 5.5 4.5V5.5H10.5V4.5C10.5 3.11929 9.3807 2 8 2ZM3.25 7C2.2835 7 1.5 7.7835 1.5 8.75V16.25C1.5 17.2165 2.2835 18 3.25 18H12.75C13.7165 18 14.5 17.2165 14.5 16.25V8.75C14.5 7.7835 13.7165 7 12.75 7H3.25Z" fill="#00204A"/>
</svg>
