<svg width="16" height="20" viewBox="0 0 16 20" fill="none" xmlns="http://www.w3.org/2000/svg">
<path d="M13.7499 0.000976562C14.9407 0.000976562 15.9155 0.926137 15.9947 2.09693L15.9999 2.25098V17.749C15.9999 18.9399 15.0747 19.9147 13.9039 19.9939L13.7499 19.999H2.25C1.05914 19.999 0.0843599 19.0739 0.0051899 17.9031L0 17.749V2.25098C0 1.06011 0.92516 0.0853267 2.09595 0.0061667L2.25 0.000976562H13.7499ZM13.7499 1.50098H2.25C1.8703 1.50098 1.55651 1.78313 1.50685 2.14921L1.5 2.25098V17.749C1.5 18.1287 1.78215 18.4425 2.14823 18.4922L2.25 18.499H13.7499C14.1296 18.499 14.4434 18.2169 14.493 17.8508L14.4999 17.749V2.25098C14.4999 1.87128 14.2177 1.55749 13.8516 1.50782L13.7499 1.50098ZM8.2481 10.9973C8.6623 10.9973 8.9981 11.3331 8.9981 11.7473C8.9981 12.127 8.7159 12.4408 8.3498 12.4905L8.2481 12.4973H3.74994C3.33572 12.4973 2.99994 12.1615 2.99994 11.7473C2.99994 11.3676 3.28209 11.0538 3.64817 11.0042L3.74994 10.9973H8.2481ZM12.2499 7.99866C12.6642 7.99866 12.9999 8.3344 12.9999 8.7487C12.9999 9.1284 12.7178 9.4421 12.3517 9.4918L12.2499 9.4987H3.74994C3.33572 9.4987 2.99994 9.1629 2.99994 8.7487C2.99994 8.369 3.28209 8.0552 3.64817 8.0055L3.74994 7.99866H12.2499ZM12.2499 5.00001C12.6642 5.00001 12.9999 5.3358 12.9999 5.75001C12.9999 6.12971 12.7178 6.4435 12.3517 6.49316L12.2499 6.50001H3.74994C3.33572 6.50001 2.99994 6.16422 2.99994 5.75001C2.99994 5.37031 3.28209 5.05652 3.64817 5.00686L3.74994 5.00001H12.2499Z" fill="#212121"/>
</svg>
