<svg width="19" height="18" viewBox="0 0 19 18" fill="none" xmlns="http://www.w3.org/2000/svg">
<path d="M2.33337 7C2.33337 4.23858 4.57195 2 7.33337 2C10.0948 2 12.3334 4.23858 12.3334 7C12.3334 9.7614 10.0948 12 7.33337 12C4.57195 12 2.33337 9.7614 2.33337 7ZM7.33337 0C3.46738 0 0.333374 3.13401 0.333374 7C0.333374 10.866 3.46738 14 7.33337 14C8.90567 14 10.357 13.4816 11.5256 12.6064L16.6263 17.7071C17.0168 18.0976 17.65 18.0976 18.0405 17.7071C18.431 17.3166 18.431 16.6834 18.0405 16.2929L12.9398 11.1922C13.815 10.0236 14.3334 8.5723 14.3334 7C14.3334 3.13401 11.1994 0 7.33337 0Z" fill="#212121"/>
</svg>
