<svg width="16" height="20" viewBox="0 0 16 20" fill="none" xmlns="http://www.w3.org/2000/svg">
<path d="M13.7544 12.0002C14.9965 12.0002 16.0033 13.007 16.0033 14.2491V15.1675C16.0033 15.7409 15.8241 16.2999 15.4907 16.7664C13.9448 18.9296 11.4205 20.0013 8.00033 20.0013C4.57933 20.0013 2.05637 18.9292 0.514205 16.7648C0.182245 16.2989 0.00384521 15.7411 0.00384521 15.169V14.2491C0.00384521 13.007 1.0107 12.0002 2.25272 12.0002H13.7544ZM8.00033 0.00488281C10.7617 0.00488281 13.0003 2.24346 13.0003 5.00488C13.0003 7.76631 10.7617 10.0049 8.00033 10.0049C5.23887 10.0049 3.0003 7.76631 3.0003 5.00488C3.0003 2.24346 5.23887 0.00488281 8.00033 0.00488281Z" fill="#212121"/>
</svg>
